<?xml version="1.0" encoding="utf-8"?><svg width="48" height="48" viewBox="0 0 48 48" xmlns="http://www.w3.org/2000/svg" xmlns:xlink="http://www.w3.org/1999/xlink"><svg width="24" height="24" viewBox="0 0 24 24" id="facebook" xmlns="http://www.w3.org/2000/svg"><path d="M14.25 4.5H18V0h-3.75A5.256 5.256 0 0 0 9 5.25V7.5H6V12h3v12h4.5V12h3.75L18 7.5h-4.5V5.25a.76.76 0 0 1 .75-.75z"/></svg><svg width="24" height="24" viewBox="0 0 24 24" id="flickr3" x="24" xmlns="http://www.w3.org/2000/svg"><path d="M21.75 0H2.25A2.257 2.257 0 0 0 0 2.25v19.5A2.257 2.257 0 0 0 2.25 24h19.5A2.257 2.257 0 0 0 24 21.75V2.25A2.257 2.257 0 0 0 21.75 0zm-15 15.75C4.678 15.75 3 14.072 3 12s1.678-3.75 3.75-3.75S10.5 9.928 10.5 12s-1.678 3.75-3.75 3.75zm10.5 0c-2.072 0-3.75-1.678-3.75-3.75s1.678-3.75 3.75-3.75S21 9.928 21 12s-1.678 3.75-3.75 3.75z"/></svg><svg width="24" height="24" viewBox="0 0 24 24" id="instagram" y="24" xmlns="http://www.w3.org/2000/svg"><path d="M12 2.161c3.206 0 3.586.014 4.847.07 1.172.052 1.805.248 2.227.413.558.216.961.478 1.378.895.422.422.68.82.9 1.378.164.422.361 1.059.413 2.227.056 1.266.07 1.645.07 4.847s-.014 3.586-.07 4.847c-.052 1.172-.248 1.805-.413 2.227a3.714 3.714 0 0 1-.895 1.378c-.422.422-.82.68-1.378.9-.422.164-1.059.361-2.227.413-1.266.056-1.645.07-4.847.07s-3.586-.014-4.847-.07c-1.172-.052-1.805-.248-2.227-.413a3.714 3.714 0 0 1-1.378-.895 3.754 3.754 0 0 1-.9-1.378c-.164-.422-.361-1.059-.412-2.227-.056-1.266-.07-1.645-.07-4.847s.014-3.586.07-4.847c.052-1.172.248-1.805.412-2.227.216-.558.478-.961.895-1.378.422-.422.82-.68 1.378-.9.422-.164 1.059-.361 2.227-.413 1.261-.056 1.641-.07 4.847-.07zM12 0C8.742 0 8.334.014 7.055.07 5.78.126 4.903.332 4.144.628a5.85 5.85 0 0 0-2.128 1.387A5.9 5.9 0 0 0 .628 4.138C.333 4.902.126 5.774.07 7.049.014 8.333 0 8.741 0 11.999s.014 3.666.07 4.945c.056 1.275.262 2.152.558 2.911a5.849 5.849 0 0 0 1.388 2.128 5.871 5.871 0 0 0 2.123 1.383c.764.295 1.636.502 2.911.558 1.28.056 1.688.07 4.945.07s3.666-.014 4.945-.07c1.275-.056 2.152-.262 2.911-.558.788-.305 1.458-.717 2.123-1.383s1.078-1.336 1.383-2.123c.295-.764.502-1.636.558-2.911.056-1.28.07-1.688.07-4.945s-.014-3.666-.07-4.945c-.056-1.275-.262-2.152-.558-2.911a5.622 5.622 0 0 0-1.373-2.133A5.871 5.871 0 0 0 19.861.632C19.097.337 18.225.13 16.95.074 15.666.013 15.258-.001 12-.001z"/><path d="M12 5.836c-3.403 0-6.164 2.761-6.164 6.164S8.597 18.164 12 18.164s6.164-2.761 6.164-6.164A6.166 6.166 0 0 0 12 5.836zm0 10.162a3.999 3.999 0 1 1 .001-7.997A3.999 3.999 0 0 1 12 15.998zM19.847 5.592a1.439 1.439 0 1 1-2.877 0 1.439 1.439 0 0 1 2.877 0z"/></svg><svg width="24" height="24" viewBox="0 0 24 24" id="twitter" x="24" y="24" xmlns="http://www.w3.org/2000/svg"><path d="M24 5.306a9.695 9.695 0 0 1-2.827.773 4.955 4.955 0 0 0 2.166-2.723 9.882 9.882 0 0 1-3.127 1.195 4.926 4.926 0 0 0-3.595-1.552 4.921 4.921 0 0 0-4.795 6.042A13.974 13.974 0 0 1 1.674 3.894a4.923 4.923 0 0 0-.666 2.475c0 1.706.867 3.216 2.189 4.097a4.916 4.916 0 0 1-2.231-.614v.061a4.924 4.924 0 0 0 3.952 4.828 4.947 4.947 0 0 1-2.226.084 4.939 4.939 0 0 0 4.598 3.422 9.875 9.875 0 0 1-7.294 2.039 13.923 13.923 0 0 0 7.552 2.212c9.056 0 14.011-7.505 14.011-14.011 0-.216-.005-.427-.014-.637a9.909 9.909 0 0 0 2.456-2.545z"/></svg></svg>