<?xml version="1.0" encoding="utf-8"?>
<!-- Generated by IcoMoon.io -->
<svg version="1.1" xmlns="http://www.w3.org/2000/svg" xmlns:xlink="http://www.w3.org/1999/xlink" width="624" height="24" viewBox="0 0 624 24">
<svg id="icon-facebook" width="24" height="24" viewBox="0 0 24 24" x="0" y="0">
<path d="M14.25 4.5h3.75v-4.5h-3.75c-2.895 0-5.25 2.355-5.25 5.25v2.25h-3v4.5h3v12h4.5v-12h3.75l0.75-4.5h-4.5v-2.25c0-0.407 0.343-0.75 0.75-0.75z" fill="#ffcc00"></path>
</svg>
<svg id="icon-twitter" width="24" height="24" viewBox="0 0 24 24" x="40" y="0">
<path d="M24 5.306c-0.881 0.394-1.833 0.656-2.827 0.773 1.017-0.609 1.795-1.575 2.166-2.723-0.952 0.563-2.006 0.975-3.127 1.195-0.9-0.956-2.18-1.552-3.595-1.552-2.719 0-4.922 2.203-4.922 4.922 0 0.384 0.042 0.759 0.127 1.12-4.092-0.206-7.72-2.166-10.148-5.147-0.422 0.727-0.666 1.575-0.666 2.475 0 1.706 0.867 3.216 2.189 4.097-0.806-0.023-1.566-0.248-2.231-0.614 0 0.019 0 0.042 0 0.061 0 2.386 1.697 4.378 3.952 4.828-0.412 0.112-0.848 0.173-1.298 0.173-0.319 0-0.623-0.033-0.928-0.089 0.628 1.955 2.447 3.38 4.598 3.422-1.688 1.322-3.806 2.109-6.117 2.109-0.398 0-0.788-0.023-1.177-0.070 2.184 1.402 4.772 2.212 7.552 2.212 9.056 0 14.011-7.505 14.011-14.011 0-0.216-0.005-0.427-0.014-0.637 0.961-0.689 1.795-1.556 2.456-2.545z" fill="#ffcc00"></path>
</svg>
<svg id="icon-instagram" width="24" height="24" viewBox="0 0 24 24" x="80" y="0">
<path d="M12 2.161c3.206 0 3.586 0.014 4.847 0.070 1.172 0.052 1.805 0.248 2.227 0.413 0.558 0.216 0.961 0.478 1.378 0.895 0.422 0.422 0.68 0.82 0.9 1.378 0.164 0.422 0.361 1.059 0.413 2.227 0.056 1.266 0.070 1.645 0.070 4.847s-0.014 3.586-0.070 4.847c-0.052 1.172-0.248 1.805-0.413 2.227-0.216 0.558-0.478 0.961-0.895 1.378-0.422 0.422-0.82 0.68-1.378 0.9-0.422 0.164-1.059 0.361-2.227 0.413-1.266 0.056-1.645 0.070-4.847 0.070s-3.586-0.014-4.847-0.070c-1.172-0.052-1.805-0.248-2.227-0.413-0.558-0.216-0.961-0.478-1.378-0.895-0.422-0.422-0.68-0.82-0.9-1.378-0.164-0.422-0.361-1.059-0.412-2.227-0.056-1.266-0.070-1.645-0.070-4.847s0.014-3.586 0.070-4.847c0.052-1.172 0.248-1.805 0.412-2.227 0.216-0.558 0.478-0.961 0.895-1.378 0.422-0.422 0.82-0.68 1.378-0.9 0.422-0.164 1.059-0.361 2.227-0.413 1.261-0.056 1.641-0.070 4.847-0.070zM12 0c-3.258 0-3.666 0.014-4.945 0.070-1.275 0.056-2.152 0.262-2.911 0.558-0.792 0.309-1.463 0.717-2.128 1.387-0.67 0.666-1.078 1.336-1.388 2.123-0.295 0.764-0.502 1.636-0.558 2.911-0.056 1.284-0.070 1.692-0.070 4.95s0.014 3.666 0.070 4.945c0.056 1.275 0.262 2.152 0.558 2.911 0.309 0.792 0.717 1.462 1.388 2.128 0.666 0.666 1.336 1.078 2.123 1.383 0.764 0.295 1.636 0.502 2.911 0.558 1.28 0.056 1.688 0.070 4.945 0.070s3.666-0.014 4.945-0.070c1.275-0.056 2.152-0.262 2.911-0.558 0.788-0.305 1.458-0.717 2.123-1.383s1.078-1.336 1.383-2.123c0.295-0.764 0.502-1.636 0.558-2.911 0.056-1.28 0.070-1.688 0.070-4.945s-0.014-3.666-0.070-4.945c-0.056-1.275-0.262-2.152-0.558-2.911-0.295-0.797-0.703-1.467-1.373-2.133-0.666-0.666-1.336-1.078-2.123-1.383-0.764-0.295-1.636-0.502-2.911-0.558-1.284-0.061-1.692-0.075-4.95-0.075v0z" fill="#ffffff"></path>
<path d="M12 5.836c-3.403 0-6.164 2.761-6.164 6.164s2.761 6.164 6.164 6.164 6.164-2.761 6.164-6.164c0-3.403-2.761-6.164-6.164-6.164zM12 15.998c-2.208 0-3.998-1.791-3.998-3.998s1.791-3.998 3.998-3.998c2.208 0 3.998 1.791 3.998 3.998s-1.791 3.998-3.998 3.998z" fill="#ffffff"></path>
<path d="M19.847 5.592c0 0.795-0.644 1.439-1.439 1.439s-1.439-0.644-1.439-1.439c0-0.795 0.644-1.439 1.439-1.439s1.439 0.644 1.439 1.439z" fill="#ffffff"></path>
</svg>
<svg id="icon-flickr" width="24" height="24" viewBox="0 0 24 24" x="120" y="0">
<path d="M0 12c0-2.899 2.35-5.25 5.25-5.25s5.25 2.351 5.25 5.25c0 2.899-2.351 5.25-5.25 5.25s-5.25-2.351-5.25-5.25zM13.5 12c0-2.899 2.351-5.25 5.25-5.25s5.25 2.351 5.25 5.25c0 2.899-2.351 5.25-5.25 5.25s-5.25-2.351-5.25-5.25z" fill="#333563"></path>
</svg>
</svg>
