<!-- Generated by IcoMoon.io -->
<svg version="1.1" xmlns="http://www.w3.org/2000/svg" width="24" height="24" viewBox="0 0 24 24">
<title>flickr3</title>
<path d="M21.75 0h-19.5c-1.237 0-2.25 1.013-2.25 2.25v19.5c0 1.237 1.013 2.25 2.25 2.25h19.5c1.237 0 2.25-1.013 2.25-2.25v-19.5c0-1.237-1.013-2.25-2.25-2.25zM6.75 15.75c-2.072 0-3.75-1.678-3.75-3.75s1.678-3.75 3.75-3.75 3.75 1.678 3.75 3.75-1.678 3.75-3.75 3.75zM17.25 15.75c-2.072 0-3.75-1.678-3.75-3.75s1.678-3.75 3.75-3.75c2.072 0 3.75 1.678 3.75 3.75s-1.678 3.75-3.75 3.75z"></path>
</svg>
